<svg width="92" height="20" viewBox="0 0 92 20" fill="none" xmlns="http://www.w3.org/2000/svg">
<g clip-path="url(#clip0_242_3093)">
<path d="M29 10.3087V10.0816C29 9.51105 28.8048 9.07437 28.4147 8.77161C28.0363 8.45721 27.5397 8.3 26.9248 8.3C26.4519 8.3 26.0794 8.38152 25.8075 8.54454C25.5473 8.69592 25.299 8.92881 25.0626 9.24322C24.9916 9.33637 24.9148 9.40042 24.832 9.43535C24.7493 9.47028 24.6369 9.48775 24.495 9.48775H23.9629C23.8328 9.48775 23.7146 9.44117 23.6082 9.34802C23.5136 9.25486 23.4723 9.14423 23.484 9.01615C23.5195 8.6668 23.6909 8.3233 23.9983 7.9856C24.3176 7.63626 24.7374 7.35097 25.2576 7.12972C25.7779 6.90848 26.3337 6.79785 26.9248 6.79785C28.0245 6.79785 28.9112 7.10061 29.5852 7.70614C30.271 8.31165 30.614 9.1617 30.614 10.2563V15.5837C30.614 15.7118 30.5666 15.8225 30.4721 15.9156C30.3774 16.0087 30.2652 16.0553 30.1351 16.0553H29.4788C29.3487 16.0553 29.2365 16.0087 29.1418 15.9156C29.0473 15.8225 29 15.7118 29 15.5837V14.8675C28.8108 15.2868 28.4087 15.6187 27.7939 15.8632C27.179 16.1077 26.5642 16.23 25.9493 16.23C25.3463 16.23 24.8084 16.1251 24.3353 15.9156C23.8624 15.6943 23.4959 15.3974 23.2357 15.0247C22.9874 14.6521 22.8633 14.2329 22.8633 13.7671C22.8633 12.8937 23.1944 12.2126 23.8565 11.7235C24.5187 11.2228 25.3995 10.8851 26.4992 10.7104L29 10.3087ZM29 11.7061L26.9071 12.0379C26.1385 12.1543 25.5415 12.3465 25.1158 12.6143C24.6901 12.8705 24.4773 13.1965 24.4773 13.5925C24.4773 13.8836 24.6132 14.1456 24.8852 14.3785C25.1571 14.6113 25.571 14.7278 26.1268 14.7278C26.9781 14.7278 27.6698 14.4891 28.2018 14.0116C28.7339 13.5343 29 12.9112 29 12.1427V11.7061Z" fill="white" fill-opacity="0.6"/>
<path d="M34.8151 15.5832C34.8151 15.7113 34.7679 15.822 34.6732 15.9151C34.5787 16.0082 34.4663 16.0548 34.3362 16.0548H33.6801C33.55 16.0548 33.4376 16.0082 33.3431 15.9151C33.2484 15.822 33.2012 15.7113 33.2012 15.5832V4.12493C33.2012 3.99684 33.2484 3.88621 33.3431 3.79305C33.4376 3.69989 33.55 3.65332 33.6801 3.65332H34.3362C34.4663 3.65332 34.5787 3.69989 34.6732 3.79305C34.7679 3.88621 34.8151 3.99684 34.8151 4.12493V15.5832Z" fill="white" fill-opacity="0.6"/>
<path d="M41.2031 14.7278C42.3856 14.7278 43.1836 14.2737 43.5976 13.3653C43.6803 13.1908 43.7631 13.0684 43.8459 12.9986C43.9286 12.9287 44.0409 12.8937 44.1829 12.8937H44.7149C44.845 12.8937 44.9572 12.9404 45.0519 13.0336C45.1464 13.115 45.1937 13.214 45.1937 13.3305C45.1937 13.7264 45.0342 14.1514 44.7149 14.6056C44.3956 15.0597 43.9345 15.444 43.3314 15.7584C42.7284 16.0728 42.019 16.23 41.2031 16.23C40.3636 16.23 39.6364 16.0553 39.0217 15.706C38.4068 15.3566 37.9338 14.8792 37.6027 14.2737C37.2716 13.6565 37.0884 12.9695 37.0529 12.2126C37.041 12.0729 37.0352 11.8051 37.0352 11.4091C37.0352 11.1297 37.041 10.9317 37.0529 10.8152C37.1594 9.62749 37.5672 8.66098 38.2767 7.91573C38.9861 7.17048 39.9617 6.79785 41.2031 6.79785C42.019 6.79785 42.7225 6.95505 43.3137 7.26946C43.9167 7.57222 44.3719 7.95066 44.6794 8.40481C44.9987 8.8473 45.1701 9.26651 45.1937 9.66242C45.2056 9.79051 45.1583 9.90114 45.0519 9.99429C44.9572 10.0874 44.845 10.134 44.7149 10.134H44.1829C44.0409 10.134 43.9286 10.0991 43.8459 10.0292C43.7631 9.95936 43.6803 9.83708 43.5976 9.66242C43.1836 8.75414 42.3856 8.3 41.2031 8.3C40.5528 8.3 39.9852 8.51543 39.5005 8.94628C39.0157 9.37713 38.7378 10.0292 38.6668 10.9026C38.6551 11.0307 38.6491 11.2402 38.6491 11.5314C38.6491 11.7992 38.6551 11.9971 38.6668 12.1252C38.7497 12.9986 39.0275 13.6506 39.5005 14.0815C39.9852 14.5124 40.5528 14.7278 41.2031 14.7278Z" fill="white" fill-opacity="0.6"/>
<path d="M55.5123 15.5832C55.5123 15.7113 55.4651 15.822 55.3705 15.9151C55.2759 16.0082 55.1636 16.0548 55.0335 16.0548H54.3773C54.2472 16.0548 54.1348 16.0082 54.0403 15.9151C53.9457 15.822 53.8984 15.7113 53.8984 15.5832V10.9719C53.8984 10.0986 53.6796 9.43486 53.2422 8.98072C52.8047 8.52658 52.1957 8.29951 51.4154 8.29951C50.6468 8.29951 50.0378 8.52658 49.5885 8.98072C49.1511 9.43486 48.9323 10.0986 48.9323 10.9719V15.5832C48.9323 15.7113 48.885 15.822 48.7904 15.9151C48.6959 16.0082 48.5835 16.0548 48.4534 16.0548H47.7972C47.6671 16.0548 47.5548 16.0082 47.4602 15.9151C47.3656 15.822 47.3184 15.7113 47.3184 15.5832V4.12493C47.3184 3.99684 47.3656 3.88621 47.4602 3.79305C47.5548 3.69989 47.6671 3.65332 47.7972 3.65332H48.4534C48.5835 3.65332 48.6959 3.69989 48.7904 3.79305C48.885 3.88621 48.9323 3.99684 48.9323 4.12493V7.98511C49.1924 7.64741 49.5472 7.36795 49.9964 7.1467C50.4576 6.9138 51.0192 6.79736 51.6814 6.79736C52.4263 6.79736 53.0884 6.95456 53.6679 7.26897C54.2472 7.58337 54.6966 8.0375 55.0158 8.63138C55.3468 9.21361 55.5123 9.90647 55.5123 10.7099V15.5832Z" fill="white" fill-opacity="0.6"/>
<path d="M61.7279 6.79785C62.9931 6.79785 63.9922 7.19377 64.7253 7.9856C65.4584 8.77743 65.825 9.85455 65.825 11.217V11.6886C65.825 11.8167 65.7777 11.9273 65.683 12.0205C65.5885 12.1136 65.4761 12.1602 65.346 12.1602H59.2448V12.2649C59.2685 13.0336 59.505 13.639 59.9542 14.0815C60.4154 14.5124 61.0066 14.7278 61.7279 14.7278C62.3191 14.7278 62.7743 14.6521 63.0936 14.5007C63.4246 14.3494 63.7202 14.134 63.9804 13.8544C64.0749 13.7613 64.1577 13.6972 64.2287 13.6624C64.3115 13.6274 64.4179 13.6099 64.548 13.6099H65.08C65.2219 13.6099 65.3402 13.6565 65.4347 13.7497C65.5294 13.8428 65.5707 13.9534 65.5589 14.0815C65.5115 14.3959 65.3342 14.722 65.0268 15.0597C64.7312 15.3857 64.2997 15.6653 63.7321 15.8981C63.1763 16.1194 62.5083 16.23 61.7279 16.23C60.9712 16.23 60.2972 16.0611 59.7059 15.7234C59.1148 15.3741 58.6418 14.8966 58.2871 14.2912C57.9442 13.6856 57.7372 13.0044 57.6663 12.2476C57.6427 11.8982 57.6309 11.6304 57.6309 11.4441C57.6309 11.2577 57.6427 10.9899 57.6663 10.6406C57.7372 9.9186 57.9442 9.26651 58.2871 8.68427C58.6418 8.10204 59.1089 7.64208 59.6882 7.3044C60.2795 6.9667 60.9593 6.79785 61.7279 6.79785ZM64.2287 10.693V10.6406C64.2287 9.93024 63.9981 9.36548 63.537 8.94628C63.0876 8.51543 62.4846 8.3 61.7279 8.3C61.0421 8.3 60.4568 8.51543 59.9721 8.94628C59.499 9.37713 59.2567 9.94189 59.2448 10.6406V10.693H64.2287Z" fill="white" fill-opacity="0.6"/>
<path d="M69.5769 7.9856C69.8606 7.62462 70.1799 7.33932 70.5346 7.12972C70.8893 6.90848 71.3622 6.79785 71.9535 6.79785C73.3369 6.79785 74.3064 7.3044 74.8622 8.31747C75.2051 7.8284 75.5953 7.45577 76.0328 7.19959C76.4703 6.93176 77.0437 6.79785 77.7531 6.79785C78.9119 6.79785 79.7692 7.14137 80.3249 7.8284C80.8924 8.51543 81.1763 9.48775 81.1763 10.7454V15.5837C81.1763 15.7118 81.129 15.8225 81.0343 15.9156C80.9398 16.0087 80.8274 16.0553 80.6974 16.0553H80.0411C79.911 16.0553 79.7988 16.0087 79.7041 15.9156C79.6096 15.8225 79.5623 15.7118 79.5623 15.5837V10.92C79.5623 9.17335 78.8646 8.3 77.4694 8.3C76.8309 8.3 76.3225 8.5096 75.9441 8.92881C75.5657 9.34802 75.3765 9.97101 75.3765 10.7978V15.5837C75.3765 15.7118 75.3292 15.8225 75.2347 15.9156C75.14 16.0087 75.0277 16.0553 74.8977 16.0553H74.2414C74.1114 16.0553 73.999 16.0087 73.9045 15.9156C73.8098 15.8225 73.7625 15.7118 73.7625 15.5837V10.92C73.7625 9.17335 73.065 8.3 71.6696 8.3C71.0312 8.3 70.5227 8.5096 70.1443 8.92881C69.7661 9.34802 69.5769 9.97101 69.5769 10.7978V15.5837C69.5769 15.7118 69.5295 15.8225 69.4349 15.9156C69.3403 16.0087 69.228 16.0553 69.098 16.0553H68.4417C68.3116 16.0553 68.1994 16.0087 68.1047 15.9156C68.0102 15.8225 67.9629 15.7118 67.9629 15.5837V7.44413C67.9629 7.31603 68.0102 7.20541 68.1047 7.11226C68.1994 7.0191 68.3116 6.97252 68.4417 6.97252H69.098C69.228 6.97252 69.3403 7.0191 69.4349 7.11226C69.5295 7.20541 69.5769 7.31603 69.5769 7.44413V7.9856Z" fill="white" fill-opacity="0.6"/>
<path d="M86.1442 18.9539C86.0378 19.2335 85.8664 19.3732 85.6299 19.3732H84.9027C84.7844 19.3732 84.6839 19.3324 84.6012 19.2509C84.5184 19.1694 84.477 19.0704 84.477 18.9539C84.477 18.9074 84.4829 18.8666 84.4947 18.8317L86.1974 15.1811L82.6857 7.51315C82.6738 7.47821 82.668 7.43746 82.668 7.39089C82.668 7.27444 82.7094 7.17546 82.7921 7.09394C82.8749 7.01243 82.9754 6.97168 83.0936 6.97168H83.8207C84.0572 6.97168 84.2287 7.11141 84.3351 7.39089L87.0665 13.3296L89.8333 7.39089C89.9398 7.11141 90.1111 6.97168 90.3476 6.97168H91.0748C91.1931 6.97168 91.2936 7.01243 91.3764 7.09394C91.4591 7.17546 91.5005 7.27444 91.5005 7.39089C91.5005 7.43746 91.4946 7.47821 91.4828 7.51315L86.1442 18.9539Z" fill="white" fill-opacity="0.6"/>
<path d="M16.1572 10.2764L10.2017 0.165487C10.1729 0.115561 10.1311 0.0739728 10.0807 0.044919C10.0302 0.0158651 9.9728 0.000373247 9.91428 6.66061e-06C9.85575 -0.000359926 9.79816 0.0144117 9.74732 0.0428309C9.69647 0.0712501 9.6542 0.112312 9.62471 0.161873L7.84112 3.19154C7.78271 3.29071 7.75195 3.40321 7.75195 3.51773C7.75195 3.63224 7.78271 3.74474 7.84112 3.84391L11.7245 10.44C11.7829 10.5392 11.867 10.6216 11.9683 10.6789C12.0696 10.7362 12.1845 10.7663 12.3015 10.7662H15.8687C15.9271 10.766 15.9844 10.7508 16.0349 10.7221C16.0855 10.6934 16.1274 10.6522 16.1567 10.6026C16.1858 10.5531 16.2013 10.4968 16.2014 10.4396C16.2014 10.3824 16.1862 10.3261 16.1572 10.2764Z" fill="white" fill-opacity="0.6"/>
<path d="M0.545923 15.5609L6.50137 5.44999C6.53059 5.40046 6.5726 5.35933 6.62316 5.33075C6.67372 5.30215 6.73104 5.28711 6.78942 5.28711C6.84778 5.28711 6.90514 5.30215 6.9557 5.33075C7.00626 5.35933 7.04825 5.40046 7.07746 5.44999L8.86199 8.47695C8.92039 8.57628 8.95112 8.68893 8.95112 8.80358C8.95112 8.91824 8.92039 9.03089 8.86199 9.13022L4.97863 15.7263C4.92039 15.8255 4.83645 15.908 4.7353 15.9652C4.63415 16.0225 4.51935 16.0526 4.40254 16.0525H0.834432C0.775654 16.0528 0.717849 16.0377 0.666892 16.0091C0.615934 15.9803 0.57365 15.9389 0.544336 15.889C0.515022 15.839 0.499724 15.7823 0.500004 15.7248C0.500284 15.6671 0.516125 15.6106 0.545923 15.5609Z" fill="white" fill-opacity="0.6"/>
<path d="M7.07657 16.0497H18.9875C19.0459 16.0497 19.1033 16.0345 19.1539 16.0058C19.2044 15.9772 19.2464 15.9359 19.2755 15.8863C19.3046 15.8367 19.32 15.7803 19.3199 15.7231C19.3198 15.6657 19.3044 15.6095 19.2751 15.56L17.4933 12.5312C17.4348 12.4319 17.3507 12.3495 17.2494 12.2923C17.1481 12.235 17.0332 12.205 16.9163 12.2051H9.1496C9.03266 12.205 8.91777 12.235 8.81647 12.2923C8.71518 12.3495 8.63104 12.4319 8.57258 12.5312L6.789 15.56C6.7597 15.6095 6.74423 15.6657 6.74414 15.7231C6.74406 15.7803 6.75935 15.8367 6.7885 15.8863C6.81765 15.9359 6.85963 15.9772 6.9102 16.0058C6.96077 16.0345 7.01814 16.0497 7.07657 16.0497Z" fill="white" fill-opacity="0.6"/>
</g>
<defs>
<clipPath id="clip0_242_3093">
<rect width="91" height="19.3735" fill="white" transform="translate(0.5)"/>
</clipPath>
</defs>
</svg>
