<svg width="1080" height="1080" viewBox="0 0 1080 1080" fill="none" xmlns="http://www.w3.org/2000/svg">
<g clip-path="url(#clip0_1_12)">
<path d="M97.632 328.32V751.68C97.632 778.896 111.888 803.52 135.648 817.344L502.416 1029.02C525.744 1042.42 554.688 1042.42 578.016 1029.02L944.784 817.344C968.112 803.952 982.8 778.896 982.8 751.68V328.32C982.8 301.104 968.544 276.48 944.784 262.656L578.016 50.976C554.688 37.584 525.744 37.584 502.416 50.976L135.648 262.656C112.32 276.048 98.064 301.104 98.064 328.32H97.632Z" fill="#213147"/>
<path d="M619.92 622.08L567.648 765.504C566.352 769.392 566.352 773.712 567.648 778.032L657.504 1024.7L761.616 964.656L636.768 622.08C633.744 614.304 622.944 614.304 619.92 622.08Z" fill="#12AAFF"/>
<path d="M724.896 381.024C721.872 373.248 711.072 373.248 708.048 381.024L655.776 524.448C654.48 528.336 654.48 532.656 655.776 536.976L803.088 940.896L907.2 880.848L724.896 381.456V381.024Z" fill="#12AAFF"/>
<path d="M540 66.96C542.592 66.96 545.184 67.824 547.344 69.12L943.92 298.08C948.672 300.672 951.264 305.856 951.264 311.04V768.96C951.264 774.144 948.24 779.328 943.92 781.92L547.344 1010.88C545.184 1012.18 542.592 1013.04 540 1013.04C537.408 1013.04 534.816 1012.18 532.656 1010.88L136.08 781.92C131.328 779.328 128.736 774.144 128.736 768.96V310.608C128.736 305.424 131.76 300.24 136.08 297.648L532.656 68.688C534.816 67.392 537.408 66.528 540 66.528V66.96ZM540 0C525.744 0 511.92 3.456 498.96 10.8L102.384 239.76C76.896 254.448 61.344 281.232 61.344 310.608V768.528C61.344 797.904 76.896 824.688 102.384 839.376L498.96 1068.34C511.488 1075.68 525.744 1079.14 540 1079.14C554.256 1079.14 568.08 1075.68 581.04 1068.34L977.616 839.376C1003.1 824.688 1018.66 797.904 1018.66 768.528V310.608C1018.66 281.232 1003.1 254.448 977.616 239.76L580.608 10.8C568.08 3.456 553.824 0 539.568 0H540Z" fill="#9DCCED"/>
<path d="M277.344 941.328L314.064 841.104L387.504 902.016L318.816 965.088L277.344 941.328Z" fill="#213147"/>
<path d="M506.304 278.208H405.648C398.304 278.208 391.392 282.96 388.8 289.872L173.232 880.848L277.344 940.896L514.944 289.872C517.104 283.824 512.784 277.776 506.736 277.776L506.304 278.208Z" fill="white"/>
<path d="M682.56 278.208H581.904C574.56 278.208 567.648 282.96 565.056 289.872L318.816 964.656L422.928 1024.7L690.768 289.872C692.928 283.824 688.608 277.776 682.56 277.776V278.208Z" fill="white"/>
</g>
<defs>
<clipPath id="clip0_1_12">
<rect width="1080" height="1080" fill="white"/>
</clipPath>
</defs>
</svg>
