<svg width="32" height="32" viewBox="0 0 32 32" fill="none" xmlns="http://www.w3.org/2000/svg">
<g clip-path="url(#clip0_1_37)">
<path d="M12.6316 28.6316C17.7482 28.6316 21.8947 24.4851 21.8947 19.3684C21.8947 14.2518 17.7482 10.1053 12.6316 10.1053C7.51495 10.1053 3.36842 14.2518 3.36842 19.3684C3.36842 24.4851 7.51495 28.6316 12.6316 28.6316ZM12.6316 32C5.65558 32 0 26.3444 0 19.3684C0 12.3924 5.65558 6.73684 12.6316 6.73684C19.6076 6.73684 25.2632 12.3924 25.2632 19.3684C25.2632 26.3444 19.6076 32 12.6316 32Z" fill="#FBCC5C"/>
<path d="M19.3684 21.8947C24.4851 21.8947 28.6316 17.7482 28.6316 12.6316C28.6316 7.51495 24.4851 3.36842 19.3684 3.36842C14.2518 3.36842 10.1053 7.51495 10.1053 12.6316C10.1053 17.7482 14.2518 21.8947 19.3684 21.8947ZM19.3684 25.2632C12.3924 25.2632 6.73684 19.6076 6.73684 12.6316C6.73684 5.65558 12.3924 0 19.3684 0C26.3444 0 32 5.65558 32 12.6316C32 19.6076 26.3444 25.2632 19.3684 25.2632Z" fill="#35D07F"/>
<path d="M19.7861 25.2632C20.6619 24.2021 21.2884 22.9592 21.6219 21.6219C22.9558 21.2884 24.1987 20.6619 25.2632 19.7861C25.216 21.3322 24.8825 22.8547 24.2796 24.2829C22.8547 24.8825 21.3322 25.216 19.7861 25.2632ZM10.3781 10.3781C9.04421 10.7116 7.80126 11.3381 6.73684 12.2139C6.784 10.6678 7.11747 9.14526 7.72042 7.72042C9.14526 7.12084 10.6712 6.78737 12.2139 6.73684C11.3381 7.79789 10.7116 9.04084 10.3781 10.3781Z" fill="#5EA33B"/>
</g>
<defs>
<clipPath id="clip0_1_37">
<rect width="32" height="32" fill="white"/>
</clipPath>
</defs>
</svg>
