<?xml version="1.0" encoding="UTF-8"?>
<!--Generator: Apple Native CoreSVG 175.5-->
<!DOCTYPE svg
PUBLIC "-//W3C//DTD SVG 1.1//EN"
       "http://www.w3.org/Graphics/SVG/1.1/DTD/svg11.dtd">
<svg version="1.1" xmlns="http://www.w3.org/2000/svg" xmlns:xlink="http://www.w3.org/1999/xlink" width="30.5332" height="18.7207">
 <g>
  <rect height="18.7207" opacity="0" width="30.5332" x="0" y="0"/>
  <path d="M15.2754 18.7207C15.7148 18.7207 16.1543 18.5449 16.4531 18.2109L30.0586 4.27148C30.3574 3.97266 30.5332 3.58594 30.5332 3.14648C30.5332 2.23242 29.8477 1.5293 28.9336 1.5293C28.4941 1.5293 28.0898 1.70508 27.791 1.98633L14.3262 15.75L16.207 15.75L2.74219 1.98633C2.46094 1.70508 2.05664 1.5293 1.59961 1.5293C0.685547 1.5293 0 2.23242 0 3.14648C0 3.58594 0.175781 3.97266 0.474609 4.28906L14.0801 18.2109C14.4141 18.5449 14.8184 18.7207 15.2754 18.7207Z" fill="#ffffff" fill-opacity="0.85"/>
 </g>
</svg>
