<svg width="39" height="28" viewBox="0 0 39 28" fill="none" xmlns="http://www.w3.org/2000/svg">
<g clip-path="url(#clip0_282_3084)">
<path d="M38.5782 12.8929V6.37503H31.8287V3.5868L31.8542 0.0761719H25.293V21.4007C25.293 22.2576 25.4619 23.1063 25.7903 23.8979C26.1187 24.6895 26.5999 25.4086 27.2065 26.014C27.813 26.6195 28.533 27.0993 29.3253 27.4261C30.1175 27.7528 30.9663 27.9202 31.8233 27.9185L38.5782 27.9077V21.4966H33.5179C33.2939 21.4968 33.072 21.4528 32.8649 21.3672C32.658 21.2817 32.4699 21.156 32.3115 20.9976C32.1531 20.8392 32.0274 20.651 31.9418 20.444C31.8561 20.2371 31.8123 20.0151 31.8125 19.791V17.2563H31.8306C31.8306 15.8079 31.8306 14.3595 31.8306 12.8875L38.5782 12.8929Z" fill="white" fill-opacity="0.6"/>
<path d="M17.9253 6.37503H23.049V0.0761719H16.5312V27.9313H23.049V11.5401C23.049 10.899 22.7595 10.2921 22.2614 9.88851L17.9253 6.37503Z" fill="white" fill-opacity="0.6"/>
<path d="M6.92 19.791V0.0761719H0.402344V21.4007C0.402342 22.2576 0.571345 23.1063 0.899679 23.8979C1.22801 24.6895 1.70924 25.4086 2.31579 26.014C2.92236 26.6195 3.64236 27.0993 4.43458 27.4261C5.2268 27.7528 6.0757 27.9202 6.93267 27.9185L14.2741 27.9077V21.4966H8.62544C8.17314 21.4966 7.73934 21.3169 7.41952 20.9971C7.09968 20.6772 6.92 20.2434 6.92 19.791Z" fill="white" fill-opacity="0.6"/>
</g>
<defs>
<clipPath id="clip0_282_3084">
<rect width="38.1914" height="28" fill="white" transform="translate(0.402344)"/>
</clipPath>
</defs>
</svg>
