<svg width="159" height="115" viewBox="0 0 159 115" fill="none" xmlns="http://www.w3.org/2000/svg">
<g opacity="0.1">
<path fill-rule="evenodd" clip-rule="evenodd" d="M53.079 3.62114C67.206 4.33112 78.1437 14.4532 88.2339 24.3659C98.452 34.4044 109.218 45.2169 109.98 59.5208C110.771 74.3881 103.149 88.5538 92.1869 98.6287C81.6571 108.306 67.375 111.415 53.079 111.817C38.2563 112.235 21.9172 111.647 11.7033 100.897C1.63011 90.2948 2.93459 74.1378 3.39 59.5208C3.82544 45.5449 4.91399 31.0961 14.2036 20.6454C23.974 9.65379 38.3913 2.88297 53.079 3.62114Z" fill="white"/>
<path fill-rule="evenodd" clip-rule="evenodd" d="M53.079 3.62114C67.206 4.33112 78.1437 14.4532 88.2339 24.3659C98.452 34.4044 109.218 45.2169 109.98 59.5208C110.771 74.3881 103.149 88.5538 92.1869 98.6287C81.6571 108.306 67.375 111.415 53.079 111.817C38.2563 112.235 21.9172 111.647 11.7033 100.897C1.63011 90.2948 2.93459 74.1378 3.39 59.5208C3.82544 45.5449 4.91399 31.0961 14.2036 20.6454C23.974 9.65379 38.3913 2.88297 53.079 3.62114Z" fill="white" stroke="url(#paint0_linear_601_1010)" stroke-width="6.08108"/>
</g>
<g opacity="0.2">
<path fill-rule="evenodd" clip-rule="evenodd" d="M65.4644 3.62114C79.5913 4.33112 90.529 14.4532 100.619 24.3659C110.837 34.4044 121.604 45.2169 122.365 59.5208C123.156 74.3881 115.534 88.5538 104.572 98.6287C94.0425 108.306 79.7604 111.415 65.4644 111.817C50.6417 112.235 34.3026 111.647 24.0886 100.897C14.0155 90.2948 15.32 74.1378 15.7754 59.5208C16.2108 45.5449 17.2994 31.0961 26.589 20.6454C36.3593 9.65379 50.7767 2.88297 65.4644 3.62114Z" fill="white"/>
<path fill-rule="evenodd" clip-rule="evenodd" d="M65.4644 3.62114C79.5913 4.33112 90.529 14.4532 100.619 24.3659C110.837 34.4044 121.604 45.2169 122.365 59.5208C123.156 74.3881 115.534 88.5538 104.572 98.6287C94.0425 108.306 79.7604 111.415 65.4644 111.817C50.6417 112.235 34.3026 111.647 24.0886 100.897C14.0155 90.2948 15.32 74.1378 15.7754 59.5208C16.2108 45.5449 17.2994 31.0961 26.589 20.6454C36.3593 9.65379 50.7767 2.88297 65.4644 3.62114Z" fill="white" stroke="url(#paint1_linear_601_1010)" stroke-width="6.08108"/>
</g>
<g opacity="0.5">
<path fill-rule="evenodd" clip-rule="evenodd" d="M82.2216 3.62114C96.3485 4.33112 107.286 14.4532 117.376 24.3659C127.595 34.4044 138.361 45.2169 139.122 59.5208C139.914 74.3881 132.291 88.5538 121.329 98.6287C110.8 108.306 96.5176 111.415 82.2216 111.817C67.3989 112.235 51.0598 111.647 40.8458 100.897C30.7727 90.2948 32.0772 74.1378 32.5326 59.5208C32.968 45.5449 34.0566 31.0961 43.3462 20.6454C53.1165 9.65379 67.5339 2.88297 82.2216 3.62114Z" fill="white"/>
<path fill-rule="evenodd" clip-rule="evenodd" d="M82.2216 3.62114C96.3485 4.33112 107.286 14.4532 117.376 24.3659C127.595 34.4044 138.361 45.2169 139.122 59.5208C139.914 74.3881 132.291 88.5538 121.329 98.6287C110.8 108.306 96.5176 111.415 82.2216 111.817C67.3989 112.235 51.0598 111.647 40.8458 100.897C30.7727 90.2948 32.0772 74.1378 32.5326 59.5208C32.968 45.5449 34.0566 31.0961 43.3462 20.6454C53.1165 9.65379 67.5339 2.88297 82.2216 3.62114Z" fill="white" stroke="url(#paint2_linear_601_1010)" stroke-width="6.08108"/>
</g>
<path fill-rule="evenodd" clip-rule="evenodd" d="M98.9783 3.62114C113.105 4.33112 124.043 14.4532 134.133 24.3659C144.351 34.4044 155.117 45.2169 155.879 59.5208C156.67 74.3881 149.048 88.5538 138.086 98.6287C127.556 108.306 113.274 111.415 98.9783 111.817C84.1556 112.235 67.8165 111.647 57.6025 100.897C47.5294 90.2948 48.8339 74.1378 49.2893 59.5208C49.7247 45.5449 50.8133 31.0961 60.1029 20.6454C69.8732 9.65379 84.2906 2.88297 98.9783 3.62114Z" fill="white"/>
<path fill-rule="evenodd" clip-rule="evenodd" d="M98.9783 3.62114C113.105 4.33112 124.043 14.4532 134.133 24.3659C144.351 34.4044 155.117 45.2169 155.879 59.5208C156.67 74.3881 149.048 88.5538 138.086 98.6287C127.556 108.306 113.274 111.415 98.9783 111.817C84.1556 112.235 67.8165 111.647 57.6025 100.897C47.5294 90.2948 48.8339 74.1378 49.2893 59.5208C49.7247 45.5449 50.8133 31.0961 60.1029 20.6454C69.8732 9.65379 84.2906 2.88297 98.9783 3.62114Z" fill="white" stroke="url(#paint3_linear_601_1010)" stroke-width="6.08108"/>
<defs>
<linearGradient id="paint0_linear_601_1010" x1="56.5559" y1="3.56631" x2="56.5559" y2="111.909" gradientUnits="userSpaceOnUse">
<stop offset="0.354167" stop-color="#8AB9F0"/>
<stop offset="1" stop-color="#3E96FD"/>
</linearGradient>
<linearGradient id="paint1_linear_601_1010" x1="68.9413" y1="3.56631" x2="68.9413" y2="111.909" gradientUnits="userSpaceOnUse">
<stop offset="0.354167" stop-color="#8AB9F0"/>
<stop offset="1" stop-color="#3E96FD"/>
</linearGradient>
<linearGradient id="paint2_linear_601_1010" x1="85.6985" y1="3.56631" x2="85.6985" y2="111.909" gradientUnits="userSpaceOnUse">
<stop offset="0.354167" stop-color="#8AB9F0"/>
<stop offset="1" stop-color="#3E96FD"/>
</linearGradient>
<linearGradient id="paint3_linear_601_1010" x1="102.455" y1="3.56631" x2="102.455" y2="111.909" gradientUnits="userSpaceOnUse">
<stop offset="0.354167" stop-color="#8AB9F0"/>
<stop offset="1" stop-color="#3E96FD"/>
</linearGradient>
</defs>
</svg>
