<svg width="32" height="32" viewBox="0 0 32 32" fill="none" xmlns="http://www.w3.org/2000/svg">
<path d="M15.7274 29.3529V24.6955C15.2586 24.6955 14.7796 24.6548 14.3108 24.5834L13.5771 29.1796C14.2904 29.3019 15.014 29.3529 15.7274 29.3529ZM17.8675 29.1898C18.5809 29.0777 19.2841 28.9146 19.9669 28.6904L18.5299 24.2573C18.0815 24.4 17.6127 24.5121 17.1439 24.5834L17.8675 29.1898ZM11.4879 28.6904L12.9248 24.2675C12.4764 24.1248 12.0382 23.9414 11.6102 23.7274L9.49045 27.8752C10.1325 28.1911 10.8051 28.4662 11.4879 28.6904ZM21.9541 27.8752C22.5962 27.549 23.2076 27.172 23.7885 26.7541L21.0369 22.9936C20.6599 23.2688 20.2522 23.5236 19.8242 23.7274L21.9541 27.8752ZM7.65605 26.7439L10.4076 22.9834C10.0306 22.7083 9.66369 22.4025 9.32739 22.0662L6.02548 25.358C6.53503 25.8573 7.08535 26.3261 7.65605 26.7439ZM25.4089 25.3783L25.4395 25.3478C25.949 24.8484 26.4178 24.2981 26.8357 23.7274L23.065 20.986C22.7898 21.3631 22.4739 21.7299 22.1478 22.0561L22.0968 22.107L23.6866 23.6051L25.4089 25.3783ZM4.6293 23.7172L8.4 20.9758C8.12484 20.5987 7.87006 20.1911 7.65605 19.7732L3.49809 21.8828C3.8242 22.5248 4.20127 23.1363 4.6293 23.7172ZM27.9567 21.893C28.2828 21.2611 28.558 20.5885 28.7822 19.9057L24.3389 18.479C24.1962 18.9274 24.0127 19.3656 23.7987 19.7834L27.9567 21.893ZM2.67261 19.9057L7.11592 18.4688C6.97325 18.0204 6.86115 17.5618 6.78981 17.093L2.17325 17.8166C2.28535 18.5197 2.4586 19.2229 2.67261 19.9057ZM29.2815 17.8268C29.3936 17.1236 29.4548 16.4 29.4548 15.6866H24.7873C24.7873 16.1554 24.7465 16.6344 24.6752 17.1032L29.2815 17.8268ZM6.67771 15.6764C6.67771 15.2076 6.71847 14.7287 6.78981 14.2599L2.17325 13.5363C2.06115 14.2395 2.01019 14.9631 2 15.6764H6.67771ZM24.6752 14.2701L29.2917 13.5465C29.1796 12.8433 29.0166 12.1401 28.7924 11.4573L24.349 12.8841C24.4917 13.3427 24.6038 13.8013 24.6752 14.2701ZM7.11592 12.8841C7.2586 12.4357 7.44204 11.9975 7.65605 11.5796L3.49809 9.47006C3.17197 10.1019 2.89682 10.7745 2.67261 11.4573L7.11592 12.8841ZM23.8089 11.5898L27.9771 9.48025C27.651 8.83822 27.2739 8.22675 26.8459 7.64586L23.065 10.3873C23.3401 10.7643 23.5949 11.172 23.8089 11.5898ZM8.4 10.3771C8.67516 10 8.99108 9.63312 9.32739 9.29682L9.33758 9.28662L6.03567 5.9949L6.02548 6.0051C5.51592 6.51465 5.04713 7.05478 4.6293 7.63567L8.4 10.3771ZM22.1478 9.3172L23.1465 8.30828L25.4395 6.02548L25.4293 6.01529C24.9197 5.51592 24.3796 5.04713 23.8089 4.6293L21.0573 8.38981C21.4344 8.66497 21.8013 8.9707 22.1274 9.30701L22.1478 9.3172ZM10.4178 8.36943C10.7949 8.09427 11.2025 7.84968 11.6306 7.63567L9.51083 3.4879C8.86879 3.81401 8.25732 4.19108 7.67643 4.60892L10.4178 8.36943ZM19.8548 7.64586L21.9847 3.49809C21.3427 3.17197 20.6803 2.89682 19.9975 2.67261L18.5503 7.09554C18.9885 7.24841 19.4268 7.43185 19.8548 7.64586ZM12.9452 7.09554C13.3936 6.95287 13.8624 6.84076 14.3312 6.76943L13.6076 2.17325C12.9045 2.28535 12.1911 2.44841 11.5083 2.67261L12.9452 7.09554ZM17.1541 6.76943L17.8879 2.17325C17.1847 2.06115 16.4611 2 15.7478 2V6.65732C16.2166 6.65732 16.6955 6.69809 17.1541 6.76943Z" fill="white"/>
<path d="M15.7274 24.9096V20.2318C15.3299 20.2318 14.9427 20.1809 14.5554 20.079L13.3325 24.5936C14.1172 24.7975 14.9223 24.9096 15.7274 24.9096ZM18.1223 24.5936C18.907 24.3898 19.651 24.0841 20.3541 23.6764L17.9898 19.6306C17.6535 19.8242 17.2866 19.9771 16.9095 20.079L18.1223 24.5936ZM11.1108 23.6764L13.4752 19.6306C13.1388 19.4369 12.8229 19.1924 12.5376 18.9172L12.4968 18.8764L11.0089 20.4357L9.17452 22.1987L9.20509 22.2293C9.77579 22.7898 10.4178 23.279 11.1108 23.6764ZM22.2599 22.2293C22.8306 21.6586 23.3299 21.0268 23.7274 20.3338L19.6408 17.9898C19.4471 18.3261 19.2025 18.6318 18.9172 18.9172L22.2599 22.2293ZM7.72738 20.3236L11.814 17.9898C11.6204 17.6535 11.4675 17.2968 11.3656 16.9197L6.81019 18.1223C7.01401 18.8866 7.32993 19.6306 7.72738 20.3236ZM24.6548 18.1325C24.8586 17.358 24.9707 16.5631 24.9707 15.7682H20.2522C20.2522 16.1554 20.2013 16.5529 20.0994 16.9299L24.6548 18.1325ZM11.2229 15.758C11.2229 15.3707 11.2739 14.9733 11.3758 14.5962L6.81019 13.3936C6.60636 14.1682 6.49426 14.9631 6.49426 15.758H11.2229ZM20.0892 14.6064L24.6548 13.4038C24.451 12.6293 24.135 11.8854 23.7376 11.1924L19.651 13.5261C19.8344 13.8726 19.9873 14.2293 20.0892 14.6064ZM11.8242 13.5261C12.0178 13.2 12.2522 12.8841 12.5376 12.6089L12.5478 12.5987L10.856 10.9274L9.23566 9.26624L9.20509 9.29682C8.63439 9.85733 8.14522 10.4994 7.73757 11.1822L11.8242 13.5261ZM18.9172 12.6089L20.5885 10.9478L22.3006 9.33758L22.2599 9.29682C21.6892 8.72612 21.0471 8.24714 20.3541 7.83949L17.9898 11.8854C18.3261 12.079 18.6318 12.3134 18.9172 12.5885V12.6089ZM13.4752 11.8854C13.8115 11.6917 14.1783 11.5389 14.5554 11.4369L13.3529 6.92229C12.5681 7.12612 11.8242 7.43185 11.121 7.83949L13.4752 11.8854ZM16.8994 11.4471L18.1223 6.93249C17.3478 6.72866 16.5427 6.61656 15.7376 6.61656V11.2943C16.1248 11.2943 16.5223 11.3452 16.8994 11.4471Z" fill="white"/>
</svg>
