<svg width="28" height="28" viewBox="0 0 28 28" fill="none" xmlns="http://www.w3.org/2000/svg">
<path d="M13.7274 27.3529V22.6955C13.2586 22.6955 12.7796 22.6548 12.3108 22.5834L11.5771 27.1796C12.2904 27.3019 13.014 27.3529 13.7274 27.3529ZM15.8675 27.1898C16.5809 27.0777 17.2841 26.9146 17.9669 26.6904L16.5299 22.2573C16.0815 22.4 15.6127 22.5121 15.1439 22.5834L15.8675 27.1898ZM9.4879 26.6904L10.9248 22.2675C10.4764 22.1248 10.0382 21.9414 9.61019 21.7274L7.49045 25.8752C8.13248 26.1911 8.8051 26.4662 9.4879 26.6904ZM19.9541 25.8752C20.5962 25.549 21.2076 25.172 21.7885 24.7541L19.0369 20.9936C18.6599 21.2688 18.2522 21.5236 17.8242 21.7274L19.9541 25.8752ZM5.65605 24.7439L8.40764 20.9834C8.03057 20.7083 7.66369 20.4025 7.32739 20.0662L4.02548 23.358C4.53503 23.8573 5.08535 24.3261 5.65605 24.7439ZM23.4089 23.3783L23.4395 23.3478C23.949 22.8484 24.4178 22.2981 24.8357 21.7274L21.065 18.986C20.7898 19.3631 20.4739 19.7299 20.1478 20.0561L20.0968 20.107L21.6866 21.6051L23.4089 23.3783ZM2.6293 21.7172L6.4 18.9758C6.12484 18.5987 5.87006 18.1911 5.65605 17.7732L1.49809 19.8828C1.8242 20.5248 2.20127 21.1363 2.6293 21.7172ZM25.9567 19.893C26.2828 19.2611 26.558 18.5885 26.7822 17.9057L22.3389 16.479C22.1962 16.9274 22.0127 17.3656 21.7987 17.7834L25.9567 19.893ZM0.672611 17.9057L5.11592 16.4688C4.97325 16.0204 4.86115 15.5618 4.78981 15.093L0.173248 15.8166C0.28535 16.5197 0.458599 17.2229 0.672611 17.9057ZM27.2815 15.8268C27.3936 15.1236 27.4548 14.4 27.4548 13.6866H22.7873C22.7873 14.1554 22.7465 14.6344 22.6752 15.1032L27.2815 15.8268ZM4.67771 13.6764C4.67771 13.2076 4.71847 12.7287 4.78981 12.2599L0.173248 11.5363C0.0611466 12.2395 0.0101911 12.9631 0 13.6764H4.67771ZM22.6752 12.2701L27.2917 11.5465C27.1796 10.8433 27.0166 10.1401 26.7924 9.45733L22.349 10.8841C22.4917 11.3427 22.6038 11.8013 22.6752 12.2701ZM5.11592 10.8841C5.2586 10.4357 5.44204 9.99745 5.65605 9.57962L1.49809 7.47006C1.17197 8.10191 0.896815 8.77452 0.672611 9.45733L5.11592 10.8841ZM21.8089 9.58981L25.9771 7.48025C25.651 6.83822 25.2739 6.22675 24.8459 5.64586L21.065 8.38726C21.3401 8.76433 21.5949 9.17198 21.8089 9.58981ZM6.4 8.37707C6.67516 8 6.99108 7.63312 7.32739 7.29682L7.33758 7.28662L4.03567 3.9949L4.02548 4.0051C3.51592 4.51465 3.04713 5.05478 2.6293 5.63567L6.4 8.37707ZM20.1478 7.3172L21.1465 6.30828L23.4395 4.02548L23.4293 4.01529C22.9197 3.51592 22.3796 3.04713 21.8089 2.6293L19.0573 6.38981C19.4344 6.66497 19.8013 6.9707 20.1274 7.30701L20.1478 7.3172ZM8.41783 6.36943C8.7949 6.09427 9.20255 5.84968 9.63057 5.63567L7.51083 1.4879C6.86879 1.81401 6.25732 2.19108 5.67643 2.60892L8.41783 6.36943ZM17.8548 5.64586L19.9847 1.49809C19.3427 1.17197 18.6803 0.896815 17.9975 0.672611L16.5503 5.09554C16.9885 5.24841 17.4268 5.43185 17.8548 5.64586ZM10.9452 5.09554C11.3936 4.95287 11.8624 4.84076 12.3312 4.76943L11.6076 0.173248C10.9045 0.28535 10.1911 0.448407 9.50828 0.672611L10.9452 5.09554ZM15.1541 4.76943L15.8879 0.173248C15.1847 0.0611464 14.4611 0 13.7478 0V4.65732C14.2166 4.65732 14.6955 4.69809 15.1541 4.76943Z" fill="black"/>
<path d="M13.7274 22.9096V18.2318C13.3299 18.2318 12.9427 18.1809 12.5554 18.079L11.3325 22.5936C12.1172 22.7975 12.9223 22.9096 13.7274 22.9096ZM16.1223 22.5936C16.907 22.3898 17.651 22.0841 18.3541 21.6764L15.9898 17.6306C15.6535 17.8242 15.2866 17.9771 14.9095 18.079L16.1223 22.5936ZM9.11082 21.6764L11.4752 17.6306C11.1388 17.4369 10.8229 17.1924 10.5376 16.9172L10.4968 16.8764L9.00891 18.4357L7.17452 20.1987L7.20509 20.2293C7.77579 20.7898 8.41783 21.279 9.11082 21.6764ZM20.2599 20.2293C20.8306 19.6586 21.3299 19.0268 21.7274 18.3338L17.6408 15.9898C17.4471 16.3261 17.2025 16.6318 16.9172 16.9172L20.2599 20.2293ZM5.72738 18.3236L9.81401 15.9898C9.62038 15.6535 9.46751 15.2968 9.3656 14.9197L4.81019 16.1223C5.01401 16.8866 5.32993 17.6306 5.72738 18.3236ZM22.6548 16.1325C22.8586 15.358 22.9707 14.5631 22.9707 13.7682H18.2522C18.2522 14.1554 18.2013 14.5529 18.0994 14.9299L22.6548 16.1325ZM9.22293 13.758C9.22293 13.3707 9.27388 12.9733 9.37579 12.5962L4.81019 11.3936C4.60636 12.1682 4.49426 12.9631 4.49426 13.758H9.22293ZM18.0892 12.6064L22.6548 11.4038C22.451 10.6293 22.135 9.88535 21.7376 9.19236L17.651 11.5261C17.8344 11.8726 17.9873 12.2293 18.0892 12.6064ZM9.8242 11.5261C10.0178 11.2 10.2522 10.8841 10.5376 10.6089L10.5478 10.5987L8.85605 8.92739L7.23566 7.26624L7.20509 7.29682C6.63439 7.85733 6.14522 8.49936 5.73757 9.18217L9.8242 11.5261ZM16.9172 10.6089L18.5885 8.94777L20.3006 7.33758L20.2599 7.29682C19.6892 6.72612 19.0471 6.24714 18.3541 5.83949L15.9898 9.88535C16.3261 10.079 16.6318 10.3134 16.9172 10.5885V10.6089ZM11.4752 9.88535C11.8115 9.69172 12.1783 9.53886 12.5554 9.43694L11.3529 4.92229C10.5681 5.12612 9.8242 5.43185 9.12101 5.83949L11.4752 9.88535ZM14.8994 9.44714L16.1223 4.93249C15.3478 4.72866 14.5427 4.61656 13.7376 4.61656V9.29427C14.1248 9.29427 14.5223 9.34522 14.8994 9.44714Z" fill="black"/>
</svg>
