<svg width="32" height="32" viewBox="0 0 32 32" fill="none" xmlns="http://www.w3.org/2000/svg">
<circle cx="16" cy="16" r="16" fill="#8247E5"/>
<path d="M21.2966 12.5768C20.9129 12.3536 20.414 12.3536 19.9919 12.5768L16.9985 14.2885L14.9646 15.4047L11.9712 17.1164C11.5874 17.3396 11.0886 17.3396 10.6664 17.1164L8.28705 15.7768C7.9033 15.5536 7.63468 15.1443 7.63468 14.6977V12.0559C7.63468 11.6094 7.86493 11.2001 8.28705 10.9768L10.628 9.6745C11.0118 9.45125 11.5107 9.45125 11.9328 9.6745L14.2738 10.9768C14.6576 11.2001 14.9262 11.6094 14.9262 12.0559V13.7675L16.9601 12.614V10.9024C16.9601 10.4559 16.7299 10.0466 16.3077 9.82334L11.9712 7.36753C11.5874 7.14428 11.0886 7.14428 10.6664 7.36753L6.25311 9.82334C5.83096 10.0466 5.60071 10.4559 5.60071 10.9024V15.8512C5.60071 16.2977 5.83096 16.7071 6.25311 16.9303L10.6664 19.3861C11.0502 19.6094 11.5491 19.6094 11.9712 19.3861L14.9646 17.7117L16.9985 16.5582L19.9919 14.8838C20.3756 14.6606 20.8745 14.6606 21.2966 14.8838L23.6376 16.1861C24.0214 16.4094 24.29 16.8187 24.29 17.2652V19.9071C24.29 20.3536 24.0597 20.7629 23.6376 20.9861L21.2966 22.3257C20.9129 22.5489 20.414 22.5489 19.9919 22.3257L17.6509 21.0233C17.2671 20.8001 16.9985 20.3908 16.9985 19.9443V18.2327L14.9646 19.3861V21.0977C14.9646 21.5443 15.1948 21.9536 15.617 22.1768L20.0302 24.6327C20.414 24.8559 20.9129 24.8559 21.335 24.6327L25.7483 22.1768C26.1321 21.9536 26.4007 21.5443 26.4007 21.0977V16.1489C26.4007 15.7024 26.1705 15.2931 25.7483 15.0698L21.2966 12.5768Z" fill="white"/>
</svg>
