<?xml version="1.0" encoding="UTF-8"?>
<!--Generator: Apple Native CoreSVG 175.5-->
<!DOCTYPE svg
PUBLIC "-//W3C//DTD SVG 1.1//EN"
       "http://www.w3.org/Graphics/SVG/1.1/DTD/svg11.dtd">
<svg version="1.1" xmlns="http://www.w3.org/2000/svg" xmlns:xlink="http://www.w3.org/1999/xlink" width="40.7988" height="37.7051">
 <g>
  <rect height="37.7051" opacity="0" width="40.7988" x="0" y="0"/>
  <path d="M5.44922 37.6875L24.1172 37.6875C27.7559 37.6875 29.5664 35.8594 29.5664 32.1855L29.5664 24.0293L26.7363 24.0293L26.7363 32.1328C26.7363 33.8906 25.8047 34.8574 23.9766 34.8574L5.58984 34.8574C3.76172 34.8574 2.83008 33.8906 2.83008 32.1328L2.83008 5.57227C2.83008 3.81445 3.76172 2.83008 5.58984 2.83008L23.9766 2.83008C25.8047 2.83008 26.7363 3.81445 26.7363 5.57227L26.7363 13.6582L29.5664 13.6582L29.5664 5.51953C29.5664 1.86328 27.7559 0 24.1172 0L5.44922 0C1.81055 0 0 1.86328 0 5.51953L0 32.1855C0 35.8594 1.81055 37.6875 5.44922 37.6875ZM16.2598 20.2324L34.3125 20.2324L36.9492 20.127L35.7012 21.3223L32.8711 23.9766C32.5898 24.2227 32.4492 24.5918 32.4492 24.9258C32.4492 25.6641 32.959 26.209 33.6797 26.209C34.0488 26.209 34.3301 26.0684 34.6113 25.8047L40.3418 19.8633C40.6934 19.5117 40.7988 19.1953 40.7988 18.8438C40.7988 18.4746 40.6934 18.1758 40.3418 17.8242L34.6113 11.8828C34.3301 11.6191 34.0488 11.4609 33.6797 11.4609C32.959 11.4609 32.4492 11.9883 32.4492 12.7266C32.4492 13.0781 32.5898 13.4473 32.8711 13.6934L35.7012 16.3652L36.9492 17.5605L34.3125 17.4375L16.2598 17.4375C15.5215 17.4375 14.9062 18.0879 14.9062 18.8438C14.9062 19.5996 15.5215 20.2324 16.2598 20.2324Z" fill="#ffffff" fill-opacity="0.85"/>
 </g>
</svg>
