<svg width="1080" height="1080" viewBox="0 0 1080 1080" fill="none" xmlns="http://www.w3.org/2000/svg">
<g opacity="0.1">
<path fill-rule="evenodd" clip-rule="evenodd" d="M384.407 221.323C467.583 225.503 531.982 285.1 591.391 343.463C651.553 402.567 714.942 466.229 719.424 550.447C724.084 637.982 679.206 721.387 614.665 780.705C552.668 837.686 468.578 855.986 384.407 858.358C297.134 860.817 200.933 857.352 140.796 794.058C81.4873 731.637 89.1678 636.509 91.8492 550.447C94.413 468.16 100.822 383.089 155.517 321.557C213.043 256.842 297.929 216.977 384.407 221.323Z" fill="#3391FF"/>
<path fill-rule="evenodd" clip-rule="evenodd" d="M384.407 221.323C467.583 225.503 531.982 285.1 591.391 343.463C651.553 402.567 714.942 466.229 719.424 550.447C724.084 637.982 679.206 721.387 614.665 780.705C552.668 837.686 468.578 855.986 384.407 858.358C297.134 860.817 200.933 857.352 140.796 794.058C81.4873 731.637 89.1678 636.509 91.8492 550.447C94.413 468.16 100.822 383.089 155.517 321.557C213.043 256.842 297.929 216.977 384.407 221.323Z" fill="#3391FF" stroke="url(#paint0_linear_459_1040)" stroke-width="35.804"/>
</g>
<g opacity="0.2">
<path fill-rule="evenodd" clip-rule="evenodd" d="M457.328 221.323C540.504 225.503 604.902 285.1 664.311 343.463C724.474 402.567 787.862 466.229 792.345 550.447C797.005 637.982 752.126 721.387 687.586 780.705C625.589 837.686 541.499 855.986 457.328 858.358C370.054 860.817 273.854 857.352 213.716 794.058C154.408 731.637 162.088 636.509 164.77 550.447C167.333 468.16 173.743 383.089 228.438 321.557C285.963 256.842 370.849 216.977 457.328 221.323Z" fill="#3391FF"/>
<path fill-rule="evenodd" clip-rule="evenodd" d="M457.328 221.323C540.504 225.503 604.902 285.1 664.311 343.463C724.474 402.567 787.862 466.229 792.345 550.447C797.005 637.982 752.126 721.387 687.586 780.705C625.589 837.686 541.499 855.986 457.328 858.358C370.054 860.817 273.854 857.352 213.716 794.058C154.408 731.637 162.088 636.509 164.77 550.447C167.333 468.16 173.743 383.089 228.438 321.557C285.963 256.842 370.849 216.977 457.328 221.323Z" fill="#3391FF" stroke="url(#paint1_linear_459_1040)" stroke-width="35.804"/>
</g>
<g opacity="0.5">
<path fill-rule="evenodd" clip-rule="evenodd" d="M555.99 221.328C639.166 225.508 703.565 285.105 762.974 343.469C823.136 402.573 886.525 466.234 891.008 550.452C895.667 637.988 850.789 721.392 786.249 780.71C724.252 837.691 640.162 855.991 555.99 858.363C468.717 860.822 372.517 857.357 312.379 794.063C253.071 731.643 260.751 636.514 263.432 550.452C265.996 468.166 272.405 383.094 327.1 321.563C384.626 256.847 469.512 216.982 555.99 221.328Z" fill="#3391FF"/>
<path fill-rule="evenodd" clip-rule="evenodd" d="M555.99 221.328C639.166 225.508 703.565 285.105 762.974 343.469C823.136 402.573 886.525 466.234 891.008 550.452C895.667 637.988 850.789 721.392 786.249 780.71C724.252 837.691 640.162 855.991 555.99 858.363C468.717 860.822 372.517 857.357 312.379 794.063C253.071 731.643 260.751 636.514 263.432 550.452C265.996 468.166 272.405 383.094 327.1 321.563C384.626 256.847 469.512 216.982 555.99 221.328Z" fill="#3391FF" stroke="url(#paint2_linear_459_1040)" stroke-width="35.804"/>
</g>
<path fill-rule="evenodd" clip-rule="evenodd" d="M654.651 221.328C737.827 225.508 802.226 285.105 861.634 343.469C921.797 402.573 985.185 466.234 989.668 550.452C994.328 637.988 949.449 721.392 884.909 780.71C822.912 837.691 738.822 855.991 654.651 858.363C567.378 860.822 471.177 857.357 411.039 794.063C351.731 731.643 359.411 636.514 362.093 550.452C364.657 468.166 371.066 383.094 425.761 321.563C483.287 256.847 568.173 216.982 654.651 221.328Z" fill="#3391FF"/>
<path fill-rule="evenodd" clip-rule="evenodd" d="M654.651 221.328C737.827 225.508 802.226 285.105 861.634 343.469C921.797 402.573 985.185 466.234 989.668 550.452C994.328 637.988 949.449 721.392 884.909 780.71C822.912 837.691 738.822 855.991 654.651 858.363C567.378 860.822 471.177 857.357 411.039 794.063C351.731 731.643 359.411 636.514 362.093 550.452C364.657 468.166 371.066 383.094 425.761 321.563C483.287 256.847 568.173 216.982 654.651 221.328Z" fill="#3391FF" stroke="url(#paint3_linear_459_1040)" stroke-width="35.804"/>
<defs>
<linearGradient id="paint0_linear_459_1040" x1="404.878" y1="221" x2="404.878" y2="858.898" gradientUnits="userSpaceOnUse">
<stop offset="0.354167" stop-color="#8AB9F0"/>
<stop offset="1" stop-color="#3E96FD"/>
</linearGradient>
<linearGradient id="paint1_linear_459_1040" x1="477.799" y1="221" x2="477.799" y2="858.898" gradientUnits="userSpaceOnUse">
<stop offset="0.354167" stop-color="#8AB9F0"/>
<stop offset="1" stop-color="#3E96FD"/>
</linearGradient>
<linearGradient id="paint2_linear_459_1040" x1="576.461" y1="221.005" x2="576.461" y2="858.903" gradientUnits="userSpaceOnUse">
<stop offset="0.354167" stop-color="#8AB9F0"/>
<stop offset="1" stop-color="#3E96FD"/>
</linearGradient>
<linearGradient id="paint3_linear_459_1040" x1="675.122" y1="221.005" x2="675.122" y2="858.903" gradientUnits="userSpaceOnUse">
<stop offset="0.354167" stop-color="#8AB9F0"/>
<stop offset="1" stop-color="#3E96FD"/>
</linearGradient>
</defs>
</svg>
