<svg width="200" height="200" viewBox="0 0 200 200" fill="none" xmlns="http://www.w3.org/2000/svg">
<g opacity="0.1">
<path fill-rule="evenodd" clip-rule="evenodd" d="M71.1865 40.9857C86.5895 41.7598 98.5152 52.7962 109.517 63.6043C120.658 74.5495 132.397 86.3387 133.227 101.935C134.09 118.145 125.779 133.59 113.827 144.575C102.346 155.127 86.7738 158.516 71.1865 158.955C55.0248 159.411 37.2099 158.769 26.0733 147.048C15.0902 135.488 16.5125 117.872 17.0091 101.935C17.4839 86.6964 18.6707 70.9424 28.7995 59.5477C39.4524 47.5632 55.172 40.1808 71.1865 40.9857Z" fill="#3391FF"/>
<path fill-rule="evenodd" clip-rule="evenodd" d="M71.1865 40.9857C86.5895 41.7598 98.5152 52.7962 109.517 63.6043C120.658 74.5495 132.397 86.3387 133.227 101.935C134.09 118.145 125.779 133.59 113.827 144.575C102.346 155.127 86.7738 158.516 71.1865 158.955C55.0248 159.411 37.2099 158.769 26.0733 147.048C15.0902 135.488 16.5125 117.872 17.0091 101.935C17.4839 86.6964 18.6707 70.9424 28.7995 59.5477C39.4524 47.5632 55.172 40.1808 71.1865 40.9857Z" fill="#3391FF" stroke="url(#paint0_linear_577_514)" stroke-width="6.63037"/>
</g>
<g opacity="0.2">
<path fill-rule="evenodd" clip-rule="evenodd" d="M84.6903 40.9857C100.093 41.7598 112.019 52.7962 123.021 63.6043C134.162 74.5495 145.9 86.3387 146.731 101.935C147.593 118.145 139.283 133.59 127.331 144.575C115.85 155.127 100.278 158.516 84.6903 158.955C68.5286 159.411 50.7137 158.769 39.5771 147.048C28.5941 135.488 30.0164 117.872 30.5129 101.935C30.9877 86.6964 32.1746 70.9424 42.3033 59.5477C52.9562 47.5632 68.6758 40.1808 84.6903 40.9857Z" fill="#3391FF"/>
<path fill-rule="evenodd" clip-rule="evenodd" d="M84.6903 40.9857C100.093 41.7598 112.019 52.7962 123.021 63.6043C134.162 74.5495 145.9 86.3387 146.731 101.935C147.593 118.145 139.283 133.59 127.331 144.575C115.85 155.127 100.278 158.516 84.6903 158.955C68.5286 159.411 50.7137 158.769 39.5771 147.048C28.5941 135.488 30.0164 117.872 30.5129 101.935C30.9877 86.6964 32.1746 70.9424 42.3033 59.5477C52.9562 47.5632 68.6758 40.1808 84.6903 40.9857Z" fill="#3391FF" stroke="url(#paint1_linear_577_514)" stroke-width="6.63037"/>
</g>
<g opacity="0.5">
<path fill-rule="evenodd" clip-rule="evenodd" d="M102.961 40.9867C118.364 41.7608 130.29 52.7972 141.291 63.6053C152.433 74.5505 164.171 86.3397 165.001 101.936C165.864 118.146 157.554 133.591 145.602 144.576C134.121 155.128 118.548 158.517 102.961 158.956C86.7995 159.412 68.9846 158.77 57.848 147.049C46.8649 135.489 48.2872 117.873 48.7838 101.936C49.2586 86.6973 50.4454 70.9433 60.5742 59.5486C71.2271 47.5642 86.9467 40.1818 102.961 40.9867Z" fill="#3391FF"/>
<path fill-rule="evenodd" clip-rule="evenodd" d="M102.961 40.9867C118.364 41.7608 130.29 52.7972 141.291 63.6053C152.433 74.5505 164.171 86.3397 165.001 101.936C165.864 118.146 157.554 133.591 145.602 144.576C134.121 155.128 118.548 158.517 102.961 158.956C86.7995 159.412 68.9846 158.77 57.848 147.049C46.8649 135.489 48.2872 117.873 48.7838 101.936C49.2586 86.6973 50.4454 70.9433 60.5742 59.5486C71.2271 47.5642 86.9467 40.1818 102.961 40.9867Z" fill="#3391FF" stroke="url(#paint2_linear_577_514)" stroke-width="6.63037"/>
</g>
<path fill-rule="evenodd" clip-rule="evenodd" d="M121.232 40.9867C136.635 41.7608 148.56 52.7972 159.562 63.6053C170.703 74.5505 182.442 86.3397 183.272 101.936C184.135 118.146 175.824 133.591 163.872 144.576C152.391 155.128 136.819 158.517 121.232 158.956C105.07 159.412 87.255 158.77 76.1184 147.049C65.1354 135.489 66.5577 117.873 67.0542 101.936C67.529 86.6973 68.7159 70.9433 78.8446 59.5486C89.4975 47.5642 105.217 40.1818 121.232 40.9867Z" fill="#3391FF"/>
<path fill-rule="evenodd" clip-rule="evenodd" d="M121.232 40.9867C136.635 41.7608 148.56 52.7972 159.562 63.6053C170.703 74.5505 182.442 86.3397 183.272 101.936C184.135 118.146 175.824 133.591 163.872 144.576C152.391 155.128 136.819 158.517 121.232 158.956C105.07 159.412 87.255 158.77 76.1184 147.049C65.1354 135.489 66.5577 117.873 67.0542 101.936C67.529 86.6973 68.7159 70.9433 78.8446 59.5486C89.4975 47.5642 105.217 40.1818 121.232 40.9867Z" fill="#3391FF" stroke="url(#paint3_linear_577_514)" stroke-width="6.63037"/>
<defs>
<linearGradient id="paint0_linear_577_514" x1="74.9774" y1="40.9259" x2="74.9774" y2="159.055" gradientUnits="userSpaceOnUse">
<stop offset="0.354167" stop-color="#8AB9F0"/>
<stop offset="1" stop-color="#3E96FD"/>
</linearGradient>
<linearGradient id="paint1_linear_577_514" x1="88.4812" y1="40.9259" x2="88.4812" y2="159.055" gradientUnits="userSpaceOnUse">
<stop offset="0.354167" stop-color="#8AB9F0"/>
<stop offset="1" stop-color="#3E96FD"/>
</linearGradient>
<linearGradient id="paint2_linear_577_514" x1="106.752" y1="40.9269" x2="106.752" y2="159.056" gradientUnits="userSpaceOnUse">
<stop offset="0.354167" stop-color="#8AB9F0"/>
<stop offset="1" stop-color="#3E96FD"/>
</linearGradient>
<linearGradient id="paint3_linear_577_514" x1="125.023" y1="40.9269" x2="125.023" y2="159.056" gradientUnits="userSpaceOnUse">
<stop offset="0.354167" stop-color="#8AB9F0"/>
<stop offset="1" stop-color="#3E96FD"/>
</linearGradient>
</defs>
</svg>
