<svg width="200" height="200" viewBox="0 0 200 200" fill="none" xmlns="http://www.w3.org/2000/svg">
<g opacity="0.1">
<path fill-rule="evenodd" clip-rule="evenodd" d="M72.4479 37.5601C87.6188 38.3383 99.3647 49.4327 110.2 60.2976C121.174 71.3003 132.735 83.1514 133.553 98.8293C134.403 115.125 126.217 130.651 114.446 141.694C103.138 152.301 87.8003 155.708 72.4479 156.149C56.5299 156.607 38.9835 155.962 28.0148 144.179C17.1973 132.559 18.5982 114.85 19.0873 98.8293C19.5549 83.5109 20.7239 67.6742 30.6999 56.2196C41.1922 44.1722 56.6749 36.751 72.4479 37.5601Z" fill="black"/>
<path fill-rule="evenodd" clip-rule="evenodd" d="M72.4479 37.5601C87.6188 38.3383 99.3647 49.4327 110.2 60.2976C121.174 71.3003 132.735 83.1514 133.553 98.8293C134.403 115.125 126.217 130.651 114.446 141.694C103.138 152.301 87.8003 155.708 72.4479 156.149C56.5299 156.607 38.9835 155.962 28.0148 144.179C17.1973 132.559 18.5982 114.85 19.0873 98.8293C19.5549 83.5109 20.7239 67.6742 30.6999 56.2196C41.1922 44.1722 56.6749 36.751 72.4479 37.5601Z" fill="black" stroke="url(#paint0_linear_587_529)" stroke-width="1.5625"/>
</g>
<g opacity="0.2">
<path fill-rule="evenodd" clip-rule="evenodd" d="M81.0614 37.5601C96.2323 38.3383 107.978 49.4327 118.814 60.2976C129.787 71.3003 141.349 83.1514 142.166 98.8293C143.016 115.125 134.831 130.651 123.059 141.694C111.751 152.301 96.4138 155.708 81.0614 156.149C65.1434 156.607 47.597 155.962 36.6283 144.179C25.8108 132.559 27.2117 114.85 27.7008 98.8293C28.1684 83.5109 29.3374 67.6742 39.3134 56.2196C49.8057 44.1722 65.2884 36.751 81.0614 37.5601Z" fill="black"/>
<path fill-rule="evenodd" clip-rule="evenodd" d="M81.0614 37.5601C96.2323 38.3383 107.978 49.4327 118.814 60.2976C129.787 71.3003 141.349 83.1514 142.166 98.8293C143.016 115.125 134.831 130.651 123.059 141.694C111.751 152.301 96.4138 155.708 81.0614 156.149C65.1434 156.607 47.597 155.962 36.6283 144.179C25.8108 132.559 27.2117 114.85 27.7008 98.8293C28.1684 83.5109 29.3374 67.6742 39.3134 56.2196C49.8057 44.1722 65.2884 36.751 81.0614 37.5601Z" fill="black" stroke="url(#paint1_linear_587_529)" stroke-width="1.5625"/>
</g>
<g opacity="0.5">
<path fill-rule="evenodd" clip-rule="evenodd" d="M99.0569 37.5601C114.228 38.3383 125.974 49.4327 136.809 60.2976C147.783 71.3003 159.344 83.1514 160.162 98.8293C161.012 115.125 152.826 130.651 141.055 141.694C129.747 152.301 114.409 155.708 99.0569 156.149C83.1389 156.607 65.5925 155.962 54.6238 144.179C43.8063 132.559 45.2072 114.85 45.6962 98.8293C46.1638 83.5109 47.3328 67.6742 57.3089 56.2196C67.8012 44.1722 83.2838 36.751 99.0569 37.5601Z" fill="black"/>
<path fill-rule="evenodd" clip-rule="evenodd" d="M99.0569 37.5601C114.228 38.3383 125.974 49.4327 136.809 60.2976C147.783 71.3003 159.344 83.1514 160.162 98.8293C161.012 115.125 152.826 130.651 141.055 141.694C129.747 152.301 114.409 155.708 99.0569 156.149C83.1389 156.607 65.5925 155.962 54.6238 144.179C43.8063 132.559 45.2072 114.85 45.6962 98.8293C46.1638 83.5109 47.3328 67.6742 57.3089 56.2196C67.8012 44.1722 83.2838 36.751 99.0569 37.5601Z" fill="black" stroke="url(#paint2_linear_587_529)" stroke-width="1.5625"/>
</g>
<path fill-rule="evenodd" clip-rule="evenodd" d="M117.052 37.5601C132.223 38.3383 143.969 49.4327 154.804 60.2976C165.778 71.3003 177.339 83.1514 178.157 98.8293C179.007 115.125 170.821 130.651 159.049 141.694C147.742 152.301 132.404 155.708 117.052 156.149C101.134 156.607 83.5874 155.962 72.6187 144.179C61.8012 132.559 63.2021 114.85 63.6911 98.8293C64.1587 83.5109 65.3277 67.6742 75.3038 56.2196C85.7961 44.1722 101.279 36.751 117.052 37.5601Z" fill="black"/>
<path fill-rule="evenodd" clip-rule="evenodd" d="M117.052 37.5601C132.223 38.3383 143.969 49.4327 154.804 60.2976C165.778 71.3003 177.339 83.1514 178.157 98.8293C179.007 115.125 170.821 130.651 159.049 141.694C147.742 152.301 132.404 155.708 117.052 156.149C101.134 156.607 83.5874 155.962 72.6187 144.179C61.8012 132.559 63.2021 114.85 63.6911 98.8293C64.1587 83.5109 65.3277 67.6742 75.3038 56.2196C85.7961 44.1722 101.279 36.751 117.052 37.5601Z" fill="black" stroke="url(#paint3_linear_587_529)" stroke-width="1.5625"/>
<defs>
<linearGradient id="paint0_linear_587_529" x1="76.1818" y1="37.5" x2="76.1818" y2="156.25" gradientUnits="userSpaceOnUse">
<stop offset="0.354167" stop-color="#8AB9F0"/>
<stop offset="1" stop-color="#3E96FD"/>
</linearGradient>
<linearGradient id="paint1_linear_587_529" x1="84.7953" y1="37.5" x2="84.7953" y2="156.25" gradientUnits="userSpaceOnUse">
<stop offset="0.354167" stop-color="#8AB9F0"/>
<stop offset="1" stop-color="#3E96FD"/>
</linearGradient>
<linearGradient id="paint2_linear_587_529" x1="102.791" y1="37.5" x2="102.791" y2="156.25" gradientUnits="userSpaceOnUse">
<stop offset="0.354167" stop-color="#8AB9F0"/>
<stop offset="1" stop-color="#3E96FD"/>
</linearGradient>
<linearGradient id="paint3_linear_587_529" x1="120.786" y1="37.5" x2="120.786" y2="156.25" gradientUnits="userSpaceOnUse">
<stop offset="0.354167" stop-color="#8AB9F0"/>
<stop offset="1" stop-color="#3E96FD"/>
</linearGradient>
</defs>
</svg>
