<svg width="200" height="200" viewBox="0 0 200 200" fill="none" xmlns="http://www.w3.org/2000/svg">
<g opacity="0.1">
<path fill-rule="evenodd" clip-rule="evenodd" d="M71.1864 40.9857C86.5894 41.7598 98.515 52.7962 109.517 63.6043C120.658 74.5495 132.396 86.3387 133.227 101.935C134.089 118.145 125.779 133.59 113.827 144.575C102.346 155.127 86.7736 158.516 71.1864 158.955C55.0247 159.411 37.2099 158.769 26.0733 147.048C15.0903 135.488 16.5126 117.872 17.0091 101.935C17.4839 86.6964 18.6708 70.9424 28.7995 59.5477C39.4523 47.5632 55.172 40.1808 71.1864 40.9857Z" fill="white"/>
<path fill-rule="evenodd" clip-rule="evenodd" d="M71.1864 40.9857C86.5894 41.7598 98.515 52.7962 109.517 63.6043C120.658 74.5495 132.396 86.3387 133.227 101.935C134.089 118.145 125.779 133.59 113.827 144.575C102.346 155.127 86.7736 158.516 71.1864 158.955C55.0247 159.411 37.2099 158.769 26.0733 147.048C15.0903 135.488 16.5126 117.872 17.0091 101.935C17.4839 86.6964 18.6708 70.9424 28.7995 59.5477C39.4523 47.5632 55.172 40.1808 71.1864 40.9857Z" fill="white" stroke="url(#paint0_linear_579_514)" stroke-width="6.63037"/>
</g>
<g opacity="0.2">
<path fill-rule="evenodd" clip-rule="evenodd" d="M84.6906 40.9857C100.094 41.7598 112.019 52.7962 123.021 63.6043C134.162 74.5495 145.901 86.3387 146.731 101.935C147.594 118.145 139.283 133.59 127.331 144.575C115.85 155.127 100.278 158.516 84.6906 158.955C68.529 159.411 50.7141 158.769 39.5775 147.048C28.5945 135.488 30.0168 117.872 30.5133 101.935C30.9881 86.6964 32.175 70.9424 42.3037 59.5477C52.9566 47.5632 68.6762 40.1808 84.6906 40.9857Z" fill="white"/>
<path fill-rule="evenodd" clip-rule="evenodd" d="M84.6906 40.9857C100.094 41.7598 112.019 52.7962 123.021 63.6043C134.162 74.5495 145.901 86.3387 146.731 101.935C147.594 118.145 139.283 133.59 127.331 144.575C115.85 155.127 100.278 158.516 84.6906 158.955C68.529 159.411 50.7141 158.769 39.5775 147.048C28.5945 135.488 30.0168 117.872 30.5133 101.935C30.9881 86.6964 32.175 70.9424 42.3037 59.5477C52.9566 47.5632 68.6762 40.1808 84.6906 40.9857Z" fill="white" stroke="url(#paint1_linear_579_514)" stroke-width="6.63037"/>
</g>
<g opacity="0.5">
<path fill-rule="evenodd" clip-rule="evenodd" d="M102.961 40.9857C118.364 41.7598 130.29 52.7962 141.292 63.6043C152.433 74.5495 164.171 86.3387 165.002 101.935C165.864 118.145 157.554 133.59 145.602 144.575C134.121 155.127 118.549 158.516 102.961 158.955C86.7998 159.411 68.9849 158.769 57.8483 147.048C46.8653 135.488 48.2876 117.872 48.7842 101.935C49.2589 86.6964 50.4458 70.9424 60.5745 59.5477C71.2274 47.5632 86.947 40.1808 102.961 40.9857Z" fill="white"/>
<path fill-rule="evenodd" clip-rule="evenodd" d="M102.961 40.9857C118.364 41.7598 130.29 52.7962 141.292 63.6043C152.433 74.5495 164.171 86.3387 165.002 101.935C165.864 118.145 157.554 133.59 145.602 144.575C134.121 155.127 118.549 158.516 102.961 158.955C86.7998 159.411 68.9849 158.769 57.8483 147.048C46.8653 135.488 48.2876 117.872 48.7842 101.935C49.2589 86.6964 50.4458 70.9424 60.5745 59.5477C71.2274 47.5632 86.947 40.1808 102.961 40.9857Z" fill="white" stroke="url(#paint2_linear_579_514)" stroke-width="6.63037"/>
</g>
<path fill-rule="evenodd" clip-rule="evenodd" d="M121.232 40.9857C136.635 41.7598 148.56 52.7962 159.562 63.6043C170.703 74.5495 182.442 86.3387 183.272 101.935C184.135 118.145 175.824 133.59 163.872 144.575C152.391 155.127 136.819 158.516 121.232 158.955C105.07 159.411 87.2552 158.769 76.1186 147.048C65.1356 135.488 66.5579 117.872 67.0545 101.935C67.5292 86.6964 68.7161 70.9424 78.8448 59.5477C89.4977 47.5632 105.217 40.1808 121.232 40.9857Z" fill="white"/>
<path fill-rule="evenodd" clip-rule="evenodd" d="M121.232 40.9857C136.635 41.7598 148.56 52.7962 159.562 63.6043C170.703 74.5495 182.442 86.3387 183.272 101.935C184.135 118.145 175.824 133.59 163.872 144.575C152.391 155.127 136.819 158.516 121.232 158.955C105.07 159.411 87.2552 158.769 76.1186 147.048C65.1356 135.488 66.5579 117.872 67.0545 101.935C67.5292 86.6964 68.7161 70.9424 78.8448 59.5477C89.4977 47.5632 105.217 40.1808 121.232 40.9857Z" fill="white" stroke="url(#paint3_linear_579_514)" stroke-width="6.63037"/>
<defs>
<linearGradient id="paint0_linear_579_514" x1="74.9773" y1="40.9259" x2="74.9773" y2="159.055" gradientUnits="userSpaceOnUse">
<stop offset="0.354167" stop-color="#8AB9F0"/>
<stop offset="1" stop-color="#3E96FD"/>
</linearGradient>
<linearGradient id="paint1_linear_579_514" x1="88.4816" y1="40.9259" x2="88.4816" y2="159.055" gradientUnits="userSpaceOnUse">
<stop offset="0.354167" stop-color="#8AB9F0"/>
<stop offset="1" stop-color="#3E96FD"/>
</linearGradient>
<linearGradient id="paint2_linear_579_514" x1="106.752" y1="40.9259" x2="106.752" y2="159.055" gradientUnits="userSpaceOnUse">
<stop offset="0.354167" stop-color="#8AB9F0"/>
<stop offset="1" stop-color="#3E96FD"/>
</linearGradient>
<linearGradient id="paint3_linear_579_514" x1="125.023" y1="40.9259" x2="125.023" y2="159.055" gradientUnits="userSpaceOnUse">
<stop offset="0.354167" stop-color="#8AB9F0"/>
<stop offset="1" stop-color="#3E96FD"/>
</linearGradient>
</defs>
</svg>
