<svg width="1080" height="1080" viewBox="0 0 1080 1080" fill="none" xmlns="http://www.w3.org/2000/svg">
<g opacity="0.1">
<path fill-rule="evenodd" clip-rule="evenodd" d="M384.407 221.323C467.583 225.503 531.982 285.1 591.39 343.463C651.553 402.567 714.941 466.229 719.424 550.447C724.083 637.982 679.205 721.387 614.665 780.705C552.668 837.686 468.578 855.986 384.407 858.358C297.134 860.817 200.933 857.352 140.796 794.058C81.4874 731.637 89.1678 636.509 91.8492 550.447C94.4129 468.16 100.822 383.089 155.517 321.557C213.043 256.842 297.929 216.977 384.407 221.323Z" fill="white"/>
<path fill-rule="evenodd" clip-rule="evenodd" d="M384.407 221.323C467.583 225.503 531.982 285.1 591.39 343.463C651.553 402.567 714.941 466.229 719.424 550.447C724.083 637.982 679.205 721.387 614.665 780.705C552.668 837.686 468.578 855.986 384.407 858.358C297.134 860.817 200.933 857.352 140.796 794.058C81.4874 731.637 89.1678 636.509 91.8492 550.447C94.4129 468.16 100.822 383.089 155.517 321.557C213.043 256.842 297.929 216.977 384.407 221.323Z" fill="white" stroke="url(#paint0_linear_178_3620)" stroke-width="35.804"/>
</g>
<g opacity="0.2">
<path fill-rule="evenodd" clip-rule="evenodd" d="M457.339 221.323C540.516 225.503 604.914 285.1 664.323 343.463C724.485 402.567 787.874 466.229 792.357 550.447C797.016 637.982 752.138 721.387 687.598 780.705C625.601 837.686 541.511 855.986 457.339 858.358C370.067 860.817 273.866 857.352 213.728 794.058C154.42 731.637 162.101 636.509 164.782 550.447C167.346 468.16 173.755 383.089 228.45 321.557C285.976 256.842 370.861 216.977 457.339 221.323Z" fill="white"/>
<path fill-rule="evenodd" clip-rule="evenodd" d="M457.339 221.323C540.516 225.503 604.914 285.1 664.323 343.463C724.485 402.567 787.874 466.229 792.357 550.447C797.016 637.982 752.138 721.387 687.598 780.705C625.601 837.686 541.511 855.986 457.339 858.358C370.067 860.817 273.866 857.352 213.728 794.058C154.42 731.637 162.101 636.509 164.782 550.447C167.346 468.16 173.755 383.089 228.45 321.557C285.976 256.842 370.861 216.977 457.339 221.323Z" fill="white" stroke="url(#paint1_linear_178_3620)" stroke-width="35.804"/>
</g>
<g opacity="0.5">
<path fill-rule="evenodd" clip-rule="evenodd" d="M555.995 221.323C639.171 225.503 703.57 285.1 762.979 343.463C823.141 402.567 886.53 466.229 891.012 550.447C895.672 637.982 850.794 721.387 786.253 780.705C724.256 837.686 640.166 855.986 555.995 858.358C468.722 860.817 372.522 857.352 312.384 794.058C253.076 731.637 260.756 636.509 263.438 550.447C266.001 468.16 272.411 383.089 327.106 321.557C384.631 256.842 469.517 216.977 555.995 221.323Z" fill="white"/>
<path fill-rule="evenodd" clip-rule="evenodd" d="M555.995 221.323C639.171 225.503 703.57 285.1 762.979 343.463C823.141 402.567 886.53 466.229 891.012 550.447C895.672 637.982 850.794 721.387 786.253 780.705C724.256 837.686 640.166 855.986 555.995 858.358C468.722 860.817 372.522 857.352 312.384 794.058C253.076 731.637 260.756 636.509 263.438 550.447C266.001 468.16 272.411 383.089 327.106 321.557C384.631 256.842 469.517 216.977 555.995 221.323Z" fill="white" stroke="url(#paint2_linear_178_3620)" stroke-width="35.804"/>
</g>
<path fill-rule="evenodd" clip-rule="evenodd" d="M654.651 221.323C737.827 225.503 802.226 285.1 861.635 343.463C921.797 402.567 985.185 466.229 989.668 550.447C994.328 637.982 949.449 721.387 884.909 780.705C822.912 837.686 738.822 855.986 654.651 858.358C567.378 860.817 471.178 857.352 411.04 794.058C351.732 731.637 359.412 636.509 362.093 550.447C364.657 468.16 371.066 383.089 425.761 321.557C483.287 256.842 568.173 216.977 654.651 221.323Z" fill="white"/>
<path fill-rule="evenodd" clip-rule="evenodd" d="M654.651 221.323C737.827 225.503 802.226 285.1 861.635 343.463C921.797 402.567 985.185 466.229 989.668 550.447C994.328 637.982 949.449 721.387 884.909 780.705C822.912 837.686 738.822 855.986 654.651 858.358C567.378 860.817 471.178 857.352 411.04 794.058C351.732 731.637 359.412 636.509 362.093 550.447C364.657 468.16 371.066 383.089 425.761 321.557C483.287 256.842 568.173 216.977 654.651 221.323Z" fill="white" stroke="url(#paint3_linear_178_3620)" stroke-width="35.804"/>
<defs>
<linearGradient id="paint0_linear_178_3620" x1="404.878" y1="221" x2="404.878" y2="858.898" gradientUnits="userSpaceOnUse">
<stop offset="0.354167" stop-color="#8AB9F0"/>
<stop offset="1" stop-color="#3E96FD"/>
</linearGradient>
<linearGradient id="paint1_linear_178_3620" x1="477.811" y1="221" x2="477.811" y2="858.898" gradientUnits="userSpaceOnUse">
<stop offset="0.354167" stop-color="#8AB9F0"/>
<stop offset="1" stop-color="#3E96FD"/>
</linearGradient>
<linearGradient id="paint2_linear_178_3620" x1="576.466" y1="221" x2="576.466" y2="858.898" gradientUnits="userSpaceOnUse">
<stop offset="0.354167" stop-color="#8AB9F0"/>
<stop offset="1" stop-color="#3E96FD"/>
</linearGradient>
<linearGradient id="paint3_linear_178_3620" x1="675.122" y1="221" x2="675.122" y2="858.898" gradientUnits="userSpaceOnUse">
<stop offset="0.354167" stop-color="#8AB9F0"/>
<stop offset="1" stop-color="#3E96FD"/>
</linearGradient>
</defs>
</svg>
