<svg width="20" height="16" viewBox="0 0 20 16" fill="none" xmlns="http://www.w3.org/2000/svg">
<g clip-path="url(#clip0_242_3105)">
<path d="M19.8736 1.89399C19.1493 2.2153 18.3707 2.43236 17.5537 2.53001C18.3876 2.03013 19.0282 1.23858 19.3297 0.295323C18.5492 0.758287 17.6848 1.09436 16.7646 1.27549C16.0279 0.490429 14.9781 0 13.8163 0C11.5857 0 9.77705 1.80845 9.77705 4.0391C9.77705 4.35569 9.81278 4.66401 9.88169 4.95962C6.52468 4.79119 3.54843 3.18307 1.5562 0.739286C1.20851 1.33583 1.00926 2.02964 1.00926 2.76992C1.00926 4.17131 1.72236 5.40762 2.80619 6.13195C2.14408 6.11098 1.52125 5.92926 0.976678 5.62675C0.976219 5.64358 0.976219 5.66051 0.976219 5.67755C0.976219 7.63454 2.36856 9.26697 4.21638 9.63829C3.87745 9.73063 3.52061 9.77995 3.15224 9.77995C2.89197 9.77995 2.63898 9.75455 2.39229 9.7075C2.90634 11.3122 4.39801 12.48 6.1656 12.5125C4.7832 13.5959 3.0416 14.2417 1.14908 14.2417C0.823046 14.2417 0.501541 14.2225 0.185547 14.1852C1.97312 15.3313 4.09629 16 6.37735 16C13.8069 16 17.8699 9.84521 17.8699 4.50738C17.8699 4.33226 17.8659 4.15812 17.8581 3.98477C18.6472 3.41539 19.3321 2.70406 19.8736 1.89399Z" fill="white"/>
</g>
<defs>
<clipPath id="clip0_242_3105">
<rect width="19.688" height="16" fill="white" transform="translate(0.185547)"/>
</clipPath>
</defs>
</svg>
